<svg xmlns="http://www.w3.org/2000/svg" xml:space="preserve" style="fill-rule:evenodd;clip-rule:evenodd;stroke-linejoin:round;stroke-miterlimit:2" viewBox="0 0 1080 1080"><path d="M444.458 464.208q-46.368 0-66.96-18.576t-22.032-61.2a4138 4138 0 0 1-.432-30.672 963 963 0 0 1 .144-28.8c.192-9.696-.096-67.49.288-78.818-.143-.587 6.168 9.211 14.204 16.366 12.048 10.729 30.903 16.307 30.903 16.307-.768 17.088-1.667 48.065-1.763 63.713a727 727 0 0 0 1.296 47.664q.864 19.296 10.8 26.928t33.552 7.632q22.176 0 31.824-7.632t10.8-26.928q1.152-12.384 1.296-26.928t-.288-28.944-1.008-27.072q-.576-23.04-9.216-34.56t-28.224-16.416l-31.968-7.776q-23.616-5.76-37.152-16.848t-19.296-29.808-6.624-47.52a1738 1738 0 0 1-.144-39.024q.144-20.304.432-41.04.864-28.512 10.08-45.792t28.656-25.2 50.832-7.92q44.928 0 65.088 18.432t21.6 61.056q.576 17.856.288 39.312c-.192 14.304.096 87.11-.288 102.854 0 0-8.997-12.587-21.392-21.244-6.796-4.746-22.03-10.597-22.03-10.597.576-17.664-.594-59.637-.498-74.037q.144-21.6-.72-42.048-.864-19.296-10.368-26.928t-32.256-7.632-32.4 7.632-10.8 26.928q-1.152 21.888-1.152 42.336t1.152 42.912q.576 24.768 6.912 36.432t21.888 15.408l30.24 6.912q27.072 6.336 42.768 17.568t22.752 29.952 7.92 46.656q.576 12.096.576 25.488t-.288 26.64-.576 25.056q-1.728 42.624-22.032 61.2t-66.384 18.576" style="fill:#424242;fill-rule:nonzero" transform="matrix(3.70234 0 0 1.76044 -976.078 182.795)"/><path d="M444.458 464.208q-46.368 0-66.96-18.576t-22.032-61.2a4138 4138 0 0 1-.432-30.672 963 963 0 0 1 .144-28.8c.192-9.696-.096-67.49.288-78.818-.143-.587 6.168 9.211 14.204 16.366 12.048 10.729 30.903 16.307 30.903 16.307-.768 17.088-1.667 48.065-1.763 63.713a727 727 0 0 0 1.296 47.664q.864 19.296 10.8 26.928t33.552 7.632q22.176 0 31.824-7.632t10.8-26.928q1.152-12.384 1.296-26.928t-.288-28.944-1.008-27.072q-.576-23.04-9.216-34.56t-28.224-16.416l-31.968-7.776q-23.616-5.76-37.152-16.848t-19.296-29.808-6.624-47.52a1738 1738 0 0 1-.144-39.024q.144-20.304.432-41.04.864-28.512 10.08-45.792t28.656-25.2 50.832-7.92q44.928 0 65.088 18.432t21.6 61.056q.576 17.856.288 39.312c-.192 14.304.096 87.11-.288 102.854 0 0-8.997-12.587-21.392-21.244-6.796-4.746-22.03-10.597-22.03-10.597.576-17.664-.594-59.637-.498-74.037q.144-21.6-.72-42.048-.864-19.296-10.368-26.928t-32.256-7.632-32.4 7.632-10.8 26.928q-1.152 21.888-1.152 42.336t1.152 42.912q.576 24.768 6.912 36.432t21.888 15.408l30.24 6.912q27.072 6.336 42.768 17.568t22.752 29.952 7.92 46.656q.576 12.096.576 25.488t-.288 26.64-.576 25.056q-1.728 42.624-22.032 61.2t-66.384 18.576M359.6 262.063c-.091 21.386.04 55.983-.104 63.276a942 942 0 0 0-.141 28.228q.142 14.12.427 30.379c.864 24.833 7.408 42.498 19.42 53.334 13.375 12.066 35.138 17.84 65.256 17.84 29.914 0 51.479-5.763 64.66-17.822 11.871-10.861 18.412-28.596 19.444-53.489q.286-11.714.571-24.848.283-13.041.283-26.225 0-12.915-.554-24.582l-.013-.316c-.513-16.588-2.804-30.484-6.994-41.6-4.277-11.347-11.243-20.185-20.757-26.993-10.238-7.327-24.191-13.005-41.849-17.138l-30.234-6.911-.025-.006c-11.52-2.773-19.549-8.959-24.242-17.599-4.965-9.139-7.902-23.202-8.376-42.555q-1.165-22.833-1.164-43.628 0-20.931 1.179-43.335l.007-.133c.973-16.293 5.42-27.858 13.567-34.302 6.736-5.329 18.035-8.214 33.921-8.214 15.899 0 27.156 2.897 33.798 8.23 8.089 6.496 12.393 18.141 13.129 34.566l.002.048q.883 20.901.736 42.98c-.084 12.608.786 46.212.633 66.451 5.059 2.095 14.088 6.044 18.936 9.43 6.382 4.457 11.904 9.915 15.871 14.316.13-27.05-.027-76.102.127-87.557q.283-20.97-.279-38.424c-.843-24.893-7.237-42.587-19.012-53.352-13.081-11.96-34.214-17.679-63.365-17.679-20.589 0-37.26 2.56-50.01 7.754-12.006 4.891-20.911 12.39-26.602 23.061-5.287 9.914-8.128 23.095-8.639 39.434q-.285 20.589-.428 40.75-.142 20.003.14 38.456c.529 17.356 2.461 31.723 5.935 43.015 3.415 11.097 9.213 19.704 17.236 26.276 8.763 7.178 20.794 12.561 36.081 16.289l31.967 7.776.014.003c13.908 3.477 23.892 9.585 30.028 17.765 6.947 9.264 10.726 23.069 11.212 41.56q.577 12.728 1.011 27.176.443 14.78.296 29.706c-.101 10.141-.553 19.538-1.348 28.18-1.01 16.13-5.453 27.59-13.548 33.993-6.741 5.333-17.849 8.214-33.345 8.214-16.445 0-28.116-2.869-35.035-8.183-8.423-6.471-12.859-18.14-13.613-34.467a745 745 0 0 1-1.321-48.78c.082-13.492.755-38.25 1.432-55.971-6.382-2.327-18.976-7.584-27.936-15.562-3.005-2.676-5.944-5.906-8.385-8.815" style="fill:#beaa81" transform="matrix(3.70234 0 0 1.76044 -976.078 182.795)"/><path d="M413.651 197.491c-.209 20.866-.946 50.586-1.296 72.765q-.576 41.184-20.16 59.04t-63.648 17.856h-90.144V-37.04l45.792 1.634v341.374h44.352q21.024 0 29.52-7.344T366.851 274c.754-29.052 1.979-62.71 2.271-87.869 0 0 40.046 8.901 44.529 11.36m-44.79-41.467c.048-10.131.006-29.493.006-39.416q0-36.432-.432-74.736t-1.584-82.656q-.288-17.28-9.504-24.48t-31.968-7.2h-41.184v.022h-45.792s13.802-6.505 17.69-9.135c22.827-15.444 28.324-33.355 28.324-33.355l40.962 1.284q46.08 0 66.24 17.856t20.736 58.752q.864 54.72 1.152 104.256c.176 30.319.291 69.363.144 99.601-1.975-.529-42.248-9.582-44.79-10.793" style="fill:#626264" transform="matrix(3.70234 0 0 1.76044 -782.646 282.331)"/><path d="M279.873-72.442h-41.47s13.802-6.505 17.69-9.135c22.827-15.444 28.324-33.355 28.324-33.355l40.962 1.284q46.08 0 66.24 17.856t20.736 58.752q.864 54.72 1.152 104.256c.176 30.319.291 69.363.144 99.601-1.975-.529-42.248-9.582-44.79-10.793.048-10.131.006-29.493.006-39.416q0-36.432-.432-74.736t-1.584-82.656q-.288-17.28-9.504-24.48t-31.968-7.2h-41.184v.022h-3.938c-.238-.357-.384-.415-.384-.021zm4.322-9.088v-.023h41.184c15.887 0 27.037 2.741 33.473 7.769 8.091 6.321 12.048 17.434 12.316 32.588q1.154 44.454 1.587 82.852.433 38.415.433 74.952c0 7.731.026 21.179.014 31.554 7.902 2.07 27.096 6.435 36.166 8.515.083-28.432-.026-62.356-.183-89.35q-.287-49.446-1.15-104.065v-.033c-.332-23.605-6.458-40.339-18.094-50.645-13.096-11.6-34.627-17.143-64.562-17.143l-.065-.001-38.907-1.22c-2.361 5.242-7.632 14.668-18.07 24.25zm129.456 279.021c-.209 20.866-.946 50.586-1.296 72.765q-.576 41.184-20.16 59.04t-63.648 17.856h-90.144V-37.04l45.792 1.634v341.374h44.352q21.024 0 29.52-7.344T366.851 274c.754-29.052 1.979-62.71 2.271-87.869 0 0 40.046 8.901 44.529 11.36m-4.416 7.568c-8.065-2.499-27.126-6.873-35.944-8.858-.441 23.741-1.461 52.736-2.123 78.201-.266 15.163-3.996 26.178-11.458 32.628-5.983 5.171-16.36 8.027-31.163 8.027h-44.352c-2.387 0-4.322-4.07-4.322-9.089V-26.47l-37.149-1.326v365.859h85.823c28.575 0 49.229-5.526 61.929-17.106 11.305-10.308 17.226-27.194 17.559-50.968v-.035c.309-19.518.918-44.886 1.2-64.895" style="fill:#beaa81" transform="matrix(3.70234 0 0 1.76044 -782.646 282.331)"/></svg>
