<svg xmlns="http://www.w3.org/2000/svg" xml:space="preserve"
	 style="fill-rule:evenodd;clip-rule:evenodd;stroke-linecap:square;stroke-linejoin:bevel;stroke-miterlimit:1.5"
	 viewBox="0 0 1527 1620"><path d="M0 0h1526.48v1619.09H0z" style="fill:none"/>
	<path
		d="m27.242 30.701-3.331 1560.38 965.603-.96 507.402-485.3-396.77-1077.88-1072.9 3.764Zm106.152 110.198 2.452 1335.93 812.855 1.387 419.274-403.098-341.313-936.686z"
		style="fill:#EA9216;stroke:#fff;stroke-width:24px"/>
	<path
		d="m280.975 296.294 655.007-.461 119.715 328.265-119.898-36.902-63.111-187.973-490.768.547 1.874 152.108 714.769 198.325 100.167 279.213-295.478 289.42-621.885 1.477.03-576.479 105.421 30.296 6.127 439.381 482.348-1.447 202.107-207.08-53.79-162.002-742.705-206.718z"
		style="fill:#EA9216;stroke:#fff;stroke-width:24px"/></svg>
