<?xml version="1.0" encoding="UTF-8" standalone="no"?><!DOCTYPE svg PUBLIC "-//W3C//DTD SVG 1.1//EN" "http://www.w3.org/Graphics/SVG/1.1/DTD/svg11.dtd"><svg width="100%" height="100%" viewBox="0 0 1527 1620" version="1.1" xmlns="http://www.w3.org/2000/svg" xmlns:xlink="http://www.w3.org/1999/xlink" xml:space="preserve" xmlns:serif="http://www.serif.com/" style="fill-rule:evenodd;clip-rule:evenodd;stroke-linecap:square;stroke-linejoin:bevel;stroke-miterlimit:1.5;"><rect id="Artboard1" x="0" y="0" width="1526.48" height="1619.09" style="fill:none;"/><g id="D"><path d="M27.242,30.701l-3.331,1560.38l965.603,-0.96l507.402,-485.3l-396.77,-1077.88l-1072.9,3.764Zm106.152,110.198l2.452,1335.93l812.855,1.387l419.274,-403.098l-341.313,-936.686l-893.268,2.467Z" style="fill:#f25e00;stroke:#000;stroke-width:20.83px;"/></g><path id="S" d="M280.975,296.294l655.007,-0.461l119.715,328.265l-119.898,-36.902l-63.111,-187.973l-490.768,0.547l1.874,152.108l714.769,198.325l100.167,279.213l-295.478,289.42l-621.885,1.477l0.03,-576.479l105.421,30.296l6.127,439.381l482.348,-1.447l202.107,-207.08l-53.79,-162.002l-742.705,-206.718l0.07,-339.97Z" style="fill:#f25e00;stroke:#000;stroke-width:20.83px;"/></svg>