<svg xmlns="http://www.w3.org/2000/svg" fill-rule="evenodd" stroke-linecap="square" stroke-linejoin="bevel" stroke-miterlimit="1.5" clip-rule="evenodd" viewBox="0 0 1167 1234"><g fill="none"><path d="M0 0h1166.67v1233.33H0z"/><path d="M13.962 8.333h1147.08v1216.67H13.962z"/><g stroke="#000"><path stroke-width="15.66" d="m34.433 31.402-2.501 1172.55 725.603-.721 381.291-364.68-298.155-809.98-806.238 2.828zm79.767 82.81 1.844 1003.89 610.823 1.043 315.065-302.911-256.48-703.875z"/><path stroke-width="15.67" d="m193.746 196.009 536.97-.377 98.145 269.107-98.291-30.252-51.738-154.1-402.331.449 1.536 124.699 585.964 162.586 82.115 228.894-242.23 237.266-509.82 1.212.027-472.596 86.421 24.836 5.025 360.203 395.428-1.185 165.686-169.765-44.098-132.805-608.866-169.467z"/></g></g></svg>